<svg id="visual" viewBox="0 0 2000 200" width="2000" height="200" xmlns="http://www.w3.org/2000/svg" xmlns:xlink="http://www.w3.org/1999/xlink" version="1.1"><rect x="0" y="0" width="2000" height="200" fill="#1c1c1c"></rect><path d="M0 72L25.7 69.2C51.3 66.3 102.7 60.7 154 67.7C205.3 74.7 256.7 94.3 308 101.3C359.3 108.3 410.7 102.7 461.8 95C513 87.3 564 77.7 615.2 76C666.3 74.3 717.7 80.7 769 80.8C820.3 81 871.7 75 923 76.8C974.3 78.7 1025.7 88.3 1077 95.5C1128.3 102.7 1179.7 107.3 1231 106.2C1282.3 105 1333.7 98 1384.8 97.7C1436 97.3 1487 103.7 1538.2 107.2C1589.3 110.7 1640.7 111.3 1692 102.7C1743.3 94 1794.7 76 1846 73.8C1897.3 71.7 1948.7 85.3 1974.3 92.2L2000 99L2000 201L1974.3 201C1948.7 201 1897.3 201 1846 201C1794.7 201 1743.3 201 1692 201C1640.7 201 1589.3 201 1538.2 201C1487 201 1436 201 1384.8 201C1333.7 201 1282.3 201 1231 201C1179.7 201 1128.3 201 1077 201C1025.7 201 974.3 201 923 201C871.7 201 820.3 201 769 201C717.7 201 666.3 201 615.2 201C564 201 513 201 461.8 201C410.7 201 359.3 201 308 201C256.7 201 205.3 201 154 201C102.7 201 51.3 201 25.7 201L0 201Z" fill="#fcaf3c"></path><path d="M0 141L25.7 135C51.3 129 102.7 117 154 117.5C205.3 118 256.7 131 308 128.8C359.3 126.7 410.7 109.3 461.8 99C513 88.7 564 85.3 615.2 93.3C666.3 101.3 717.7 120.7 769 126.5C820.3 132.3 871.7 124.7 923 116.8C974.3 109 1025.7 101 1077 103C1128.3 105 1179.7 117 1231 124C1282.3 131 1333.7 133 1384.8 130C1436 127 1487 119 1538.2 119.8C1589.3 120.7 1640.7 130.3 1692 136.2C1743.3 142 1794.7 144 1846 139.5C1897.3 135 1948.7 124 1974.3 118.5L2000 113L2000 201L1974.3 201C1948.7 201 1897.3 201 1846 201C1794.7 201 1743.3 201 1692 201C1640.7 201 1589.3 201 1538.2 201C1487 201 1436 201 1384.8 201C1333.7 201 1282.3 201 1231 201C1179.7 201 1128.3 201 1077 201C1025.7 201 974.3 201 923 201C871.7 201 820.3 201 769 201C717.7 201 666.3 201 615.2 201C564 201 513 201 461.8 201C410.7 201 359.3 201 308 201C256.7 201 205.3 201 154 201C102.7 201 51.3 201 25.7 201L0 201Z" fill="#fb9d2c"></path><path d="M0 151L25.7 147.8C51.3 144.7 102.7 138.3 154 133.8C205.3 129.3 256.7 126.7 308 129.7C359.3 132.7 410.7 141.3 461.8 143.5C513 145.7 564 141.3 615.2 134.8C666.3 128.3 717.7 119.7 769 124.5C820.3 129.3 871.7 147.7 923 154.7C974.3 161.7 1025.7 157.3 1077 156.2C1128.3 155 1179.7 157 1231 157.7C1282.3 158.3 1333.7 157.7 1384.8 150.8C1436 144 1487 131 1538.2 131C1589.3 131 1640.7 144 1692 146.2C1743.3 148.3 1794.7 139.7 1846 135C1897.3 130.3 1948.7 129.7 1974.3 129.3L2000 129L2000 201L1974.3 201C1948.7 201 1897.3 201 1846 201C1794.7 201 1743.3 201 1692 201C1640.7 201 1589.3 201 1538.2 201C1487 201 1436 201 1384.8 201C1333.7 201 1282.3 201 1231 201C1179.7 201 1128.3 201 1077 201C1025.7 201 974.3 201 923 201C871.7 201 820.3 201 769 201C717.7 201 666.3 201 615.2 201C564 201 513 201 461.8 201C410.7 201 359.3 201 308 201C256.7 201 205.3 201 154 201C102.7 201 51.3 201 25.7 201L0 201Z" fill="#f98b1d"></path><path d="M0 190L25.7 189.7C51.3 189.3 102.7 188.7 154 182.3C205.3 176 256.7 164 308 156.3C359.3 148.7 410.7 145.3 461.8 148.2C513 151 564 160 615.2 161.5C666.3 163 717.7 157 769 154.7C820.3 152.3 871.7 153.7 923 159.3C974.3 165 1025.7 175 1077 180.7C1128.3 186.3 1179.7 187.7 1231 188.5C1282.3 189.3 1333.7 189.7 1384.8 185.5C1436 181.3 1487 172.7 1538.2 168.8C1589.3 165 1640.7 166 1692 168.3C1743.3 170.7 1794.7 174.3 1846 172.7C1897.3 171 1948.7 164 1974.3 160.5L2000 157L2000 201L1974.3 201C1948.7 201 1897.3 201 1846 201C1794.7 201 1743.3 201 1692 201C1640.7 201 1589.3 201 1538.2 201C1487 201 1436 201 1384.8 201C1333.7 201 1282.3 201 1231 201C1179.7 201 1128.3 201 1077 201C1025.7 201 974.3 201 923 201C871.7 201 820.3 201 769 201C717.7 201 666.3 201 615.2 201C564 201 513 201 461.8 201C410.7 201 359.3 201 308 201C256.7 201 205.3 201 154 201C102.7 201 51.3 201 25.7 201L0 201Z" fill="#f7770f"></path></svg>