<svg id="visual" viewBox="0 0 2000 200" width="2000" height="200" xmlns="http://www.w3.org/2000/svg" xmlns:xlink="http://www.w3.org/1999/xlink" version="1.1"><rect x="0" y="0" width="2000" height="200" fill="#1c1c1c"></rect><path d="M0 58L25.7 63.3C51.3 68.7 102.7 79.3 154 86.5C205.3 93.7 256.7 97.3 308 92.3C359.3 87.3 410.7 73.7 461.8 76.5C513 79.3 564 98.7 615.2 97C666.3 95.3 717.7 72.7 769 72.7C820.3 72.7 871.7 95.3 923 101.3C974.3 107.3 1025.7 96.7 1077 90C1128.3 83.3 1179.7 80.7 1231 82.3C1282.3 84 1333.7 90 1384.8 92.2C1436 94.3 1487 92.7 1538.2 94.3C1589.3 96 1640.7 101 1692 98.2C1743.3 95.3 1794.7 84.7 1846 78.2C1897.3 71.7 1948.7 69.3 1974.3 68.2L2000 67L2000 201L1974.3 201C1948.7 201 1897.3 201 1846 201C1794.7 201 1743.3 201 1692 201C1640.7 201 1589.3 201 1538.2 201C1487 201 1436 201 1384.8 201C1333.7 201 1282.3 201 1231 201C1179.7 201 1128.3 201 1077 201C1025.7 201 974.3 201 923 201C871.7 201 820.3 201 769 201C717.7 201 666.3 201 615.2 201C564 201 513 201 461.8 201C410.7 201 359.3 201 308 201C256.7 201 205.3 201 154 201C102.7 201 51.3 201 25.7 201L0 201Z" fill="#cd1313"></path><path d="M0 126L25.7 120.3C51.3 114.7 102.7 103.3 154 99.2C205.3 95 256.7 98 308 103.5C359.3 109 410.7 117 461.8 115C513 113 564 101 615.2 98.7C666.3 96.3 717.7 103.7 769 108.5C820.3 113.3 871.7 115.7 923 116.7C974.3 117.7 1025.7 117.3 1077 121.7C1128.3 126 1179.7 135 1231 132.3C1282.3 129.7 1333.7 115.3 1384.8 111.3C1436 107.3 1487 113.7 1538.2 120.7C1589.3 127.7 1640.7 135.3 1692 138C1743.3 140.7 1794.7 138.3 1846 136.8C1897.3 135.3 1948.7 134.7 1974.3 134.3L2000 134L2000 201L1974.3 201C1948.7 201 1897.3 201 1846 201C1794.7 201 1743.3 201 1692 201C1640.7 201 1589.3 201 1538.2 201C1487 201 1436 201 1384.8 201C1333.7 201 1282.3 201 1231 201C1179.7 201 1128.3 201 1077 201C1025.7 201 974.3 201 923 201C871.7 201 820.3 201 769 201C717.7 201 666.3 201 615.2 201C564 201 513 201 461.8 201C410.7 201 359.3 201 308 201C256.7 201 205.3 201 154 201C102.7 201 51.3 201 25.7 201L0 201Z" fill="#a70a0f"></path><path d="M0 128L25.7 127.2C51.3 126.3 102.7 124.7 154 128.5C205.3 132.3 256.7 141.7 308 148.5C359.3 155.3 410.7 159.7 461.8 153C513 146.3 564 128.7 615.2 126.5C666.3 124.3 717.7 137.7 769 138.3C820.3 139 871.7 127 923 129.8C974.3 132.7 1025.7 150.3 1077 153.3C1128.3 156.3 1179.7 144.7 1231 145C1282.3 145.3 1333.7 157.7 1384.8 156.3C1436 155 1487 140 1538.2 134.3C1589.3 128.7 1640.7 132.3 1692 130.7C1743.3 129 1794.7 122 1846 118.3C1897.3 114.7 1948.7 114.3 1974.3 114.2L2000 114L2000 201L1974.3 201C1948.7 201 1897.3 201 1846 201C1794.7 201 1743.3 201 1692 201C1640.7 201 1589.3 201 1538.2 201C1487 201 1436 201 1384.8 201C1333.7 201 1282.3 201 1231 201C1179.7 201 1128.3 201 1077 201C1025.7 201 974.3 201 923 201C871.7 201 820.3 201 769 201C717.7 201 666.3 201 615.2 201C564 201 513 201 461.8 201C410.7 201 359.3 201 308 201C256.7 201 205.3 201 154 201C102.7 201 51.3 201 25.7 201L0 201Z" fill="#83030a"></path><path d="M0 189L25.7 181.3C51.3 173.7 102.7 158.3 154 154C205.3 149.7 256.7 156.3 308 157C359.3 157.7 410.7 152.3 461.8 157.3C513 162.3 564 177.7 615.2 181.8C666.3 186 717.7 179 769 174C820.3 169 871.7 166 923 168.2C974.3 170.3 1025.7 177.7 1077 174.3C1128.3 171 1179.7 157 1231 156C1282.3 155 1333.7 167 1384.8 174.5C1436 182 1487 185 1538.2 184.5C1589.3 184 1640.7 180 1692 179.3C1743.3 178.7 1794.7 181.3 1846 178.5C1897.3 175.7 1948.7 167.3 1974.3 163.2L2000 159L2000 201L1974.3 201C1948.7 201 1897.3 201 1846 201C1794.7 201 1743.3 201 1692 201C1640.7 201 1589.3 201 1538.2 201C1487 201 1436 201 1384.8 201C1333.7 201 1282.3 201 1231 201C1179.7 201 1128.3 201 1077 201C1025.7 201 974.3 201 923 201C871.7 201 820.3 201 769 201C717.7 201 666.3 201 615.2 201C564 201 513 201 461.8 201C410.7 201 359.3 201 308 201C256.7 201 205.3 201 154 201C102.7 201 51.3 201 25.7 201L0 201Z" fill="#600000"></path></svg>