<svg id="visual" viewBox="0 0 2000 200" width="2000" height="200" xmlns="http://www.w3.org/2000/svg" xmlns:xlink="http://www.w3.org/1999/xlink" version="1.1"><path d="M0 43L14.5 42C29 41 58 39 87 39.3C116 39.7 145 42.3 174 38.7C203 35 232 25 261 24.3C290 23.7 319 32.3 348 37.7C377 43 406 45 435 43.3C464 41.7 493 36.3 522 33.7C551 31 580 31 609 27.7C638 24.3 667 17.7 696 16C725 14.3 754 17.7 783 18.3C812 19 841 17 870 21.7C899 26.3 928 37.7 956.8 39.3C985.7 41 1014.3 33 1043.2 34C1072 35 1101 45 1130 47.3C1159 49.7 1188 44.3 1217 43.3C1246 42.3 1275 45.7 1304 48.3C1333 51 1362 53 1391 49.3C1420 45.7 1449 36.3 1478 33C1507 29.7 1536 32.3 1565 29.7C1594 27 1623 19 1652 19.7C1681 20.3 1710 29.7 1739 35.7C1768 41.7 1797 44.3 1826 45.3C1855 46.3 1884 45.7 1913 43.7C1942 41.7 1971 38.3 1985.5 36.7L2000 35L2000 0L1985.5 0C1971 0 1942 0 1913 0C1884 0 1855 0 1826 0C1797 0 1768 0 1739 0C1710 0 1681 0 1652 0C1623 0 1594 0 1565 0C1536 0 1507 0 1478 0C1449 0 1420 0 1391 0C1362 0 1333 0 1304 0C1275 0 1246 0 1217 0C1188 0 1159 0 1130 0C1101 0 1072 0 1043.2 0C1014.3 0 985.7 0 956.8 0C928 0 899 0 870 0C841 0 812 0 783 0C754 0 725 0 696 0C667 0 638 0 609 0C580 0 551 0 522 0C493 0 464 0 435 0C406 0 377 0 348 0C319 0 290 0 261 0C232 0 203 0 174 0C145 0 116 0 87 0C58 0 29 0 14.5 0L0 0Z" fill="#e11b00"></path><path d="M0 115L14.5 112.7C29 110.3 58 105.7 87 105.7C116 105.7 145 110.3 174 104C203 97.7 232 80.3 261 75.3C290 70.3 319 77.7 348 86.7C377 95.7 406 106.3 435 112.3C464 118.3 493 119.7 522 115.7C551 111.7 580 102.3 609 99.7C638 97 667 101 696 100.7C725 100.3 754 95.7 783 84.3C812 73 841 55 870 56.3C899 57.7 928 78.3 956.8 88.3C985.7 98.3 1014.3 97.7 1043.2 100.7C1072 103.7 1101 110.3 1130 109.7C1159 109 1188 101 1217 101.7C1246 102.3 1275 111.7 1304 118C1333 124.3 1362 127.7 1391 115.3C1420 103 1449 75 1478 70.3C1507 65.7 1536 84.3 1565 102C1594 119.7 1623 136.3 1652 141.3C1681 146.3 1710 139.7 1739 126C1768 112.3 1797 91.7 1826 93.3C1855 95 1884 119 1913 128C1942 137 1971 131 1985.5 128L2000 125L2000 33L1985.5 34.7C1971 36.3 1942 39.7 1913 41.7C1884 43.7 1855 44.3 1826 43.3C1797 42.3 1768 39.7 1739 33.7C1710 27.7 1681 18.3 1652 17.7C1623 17 1594 25 1565 27.7C1536 30.3 1507 27.7 1478 31C1449 34.3 1420 43.7 1391 47.3C1362 51 1333 49 1304 46.3C1275 43.7 1246 40.3 1217 41.3C1188 42.3 1159 47.7 1130 45.3C1101 43 1072 33 1043.2 32C1014.3 31 985.7 39 956.8 37.3C928 35.7 899 24.3 870 19.7C841 15 812 17 783 16.3C754 15.7 725 12.3 696 14C667 15.7 638 22.3 609 25.7C580 29 551 29 522 31.7C493 34.3 464 39.7 435 41.3C406 43 377 41 348 35.7C319 30.3 290 21.7 261 22.3C232 23 203 33 174 36.7C145 40.3 116 37.7 87 37.3C58 37 29 39 14.5 40L0 41Z" fill="#c41102"></path><path d="M0 169L14.5 169C29 169 58 169 87 169.7C116 170.3 145 171.7 174 172C203 172.3 232 171.7 261 168.3C290 165 319 159 348 156.7C377 154.3 406 155.7 435 159C464 162.3 493 167.7 522 172C551 176.3 580 179.7 609 179.3C638 179 667 175 696 172.3C725 169.7 754 168.3 783 164.3C812 160.3 841 153.7 870 152.7C899 151.7 928 156.3 956.8 162.3C985.7 168.3 1014.3 175.7 1043.2 177.7C1072 179.7 1101 176.3 1130 169.7C1159 163 1188 153 1217 152.7C1246 152.3 1275 161.7 1304 168.3C1333 175 1362 179 1391 174.3C1420 169.7 1449 156.3 1478 154C1507 151.7 1536 160.3 1565 167C1594 173.7 1623 178.3 1652 175.7C1681 173 1710 163 1739 161.7C1768 160.3 1797 167.7 1826 172.7C1855 177.7 1884 180.3 1913 178C1942 175.7 1971 168.3 1985.5 164.7L2000 161L2000 123L1985.5 126C1971 129 1942 135 1913 126C1884 117 1855 93 1826 91.3C1797 89.7 1768 110.3 1739 124C1710 137.7 1681 144.3 1652 139.3C1623 134.3 1594 117.7 1565 100C1536 82.3 1507 63.7 1478 68.3C1449 73 1420 101 1391 113.3C1362 125.7 1333 122.3 1304 116C1275 109.7 1246 100.3 1217 99.7C1188 99 1159 107 1130 107.7C1101 108.3 1072 101.7 1043.2 98.7C1014.3 95.7 985.7 96.3 956.8 86.3C928 76.3 899 55.7 870 54.3C841 53 812 71 783 82.3C754 93.7 725 98.3 696 98.7C667 99 638 95 609 97.7C580 100.3 551 109.7 522 113.7C493 117.7 464 116.3 435 110.3C406 104.3 377 93.7 348 84.7C319 75.7 290 68.3 261 73.3C232 78.3 203 95.7 174 102C145 108.3 116 103.7 87 103.7C58 103.7 29 108.3 14.5 110.7L0 113Z" fill="#a60703"></path><path d="M0 201L14.5 201C29 201 58 201 87 201C116 201 145 201 174 201C203 201 232 201 261 201C290 201 319 201 348 201C377 201 406 201 435 201C464 201 493 201 522 201C551 201 580 201 609 201C638 201 667 201 696 201C725 201 754 201 783 201C812 201 841 201 870 201C899 201 928 201 956.8 201C985.7 201 1014.3 201 1043.2 201C1072 201 1101 201 1130 201C1159 201 1188 201 1217 201C1246 201 1275 201 1304 201C1333 201 1362 201 1391 201C1420 201 1449 201 1478 201C1507 201 1536 201 1565 201C1594 201 1623 201 1652 201C1681 201 1710 201 1739 201C1768 201 1797 201 1826 201C1855 201 1884 201 1913 201C1942 201 1971 201 1985.5 201L2000 201L2000 159L1985.5 162.7C1971 166.3 1942 173.7 1913 176C1884 178.3 1855 175.7 1826 170.7C1797 165.7 1768 158.3 1739 159.7C1710 161 1681 171 1652 173.7C1623 176.3 1594 171.7 1565 165C1536 158.3 1507 149.7 1478 152C1449 154.3 1420 167.7 1391 172.3C1362 177 1333 173 1304 166.3C1275 159.7 1246 150.3 1217 150.7C1188 151 1159 161 1130 167.7C1101 174.3 1072 177.7 1043.2 175.7C1014.3 173.7 985.7 166.3 956.8 160.3C928 154.3 899 149.7 870 150.7C841 151.7 812 158.3 783 162.3C754 166.3 725 167.7 696 170.3C667 173 638 177 609 177.3C580 177.7 551 174.3 522 170C493 165.7 464 160.3 435 157C406 153.7 377 152.3 348 154.7C319 157 290 163 261 166.3C232 169.7 203 170.3 174 170C145 169.7 116 168.3 87 167.7C58 167 29 167 14.5 167L0 167Z" fill="#8a0101"></path></svg>