<svg style="object-fit:cover" id="my-svg" version="1" baseProfile="full" width="100%" height="100%" viewBox="0 0 1920 969" xmlns="http://www.w3.org/2000/svg"><rect width="1920" height="969" fill="#610101"></rect><path transform="scale(-1, -1)" d="M 0,969 V 0,290 C 318,254.5 636,219 956,219 C 1276,219 1598,254.5 1920,290 C 1920,290 1920,969 1920,969 Z" stroke="none" stroke-width="0" fill="#8a010180" class="transition-all duration-300 ease-in-out delay-150" style="transform-origin: center center;"></path><path transform="scale(-1, -1)" d="M 0,969 V 0,436 C 237.5,447 475,458 795,458 C 1115,458 1517.5,447 1920,436 C 1920,436 1920,969 1920,969 Z" stroke="none" stroke-width="0" fill="#8a010190" class="transition-all duration-300 ease-in-out delay-150" style="transform-origin: center center;"></path><path transform="scale(-1, -1)" d="M 0,969 V 0,654 C 232,696 464,738 784,738 C 1104,738 1512,696 1920,654 C 1920,654 1920,969 1920,969 Z" stroke="none" stroke-width="0" fill="#8a0101ff" class="transition-all duration-300 ease-in-out delay-150" style="transform-origin: center center;"></path></svg>